<svg width="64" height="64" viewBox="0 0 64 64" fill="none" xmlns="http://www.w3.org/2000/svg">
<g clip-path="url(#clip0_886_523)">
<path d="M22.0001 10.0001L11.6576 20.3426C11.1321 20.8678 10.7152 21.4914 10.4308 22.1777C10.1464 22.864 10 23.5997 10 24.3426C10 25.0856 10.1464 25.8212 10.4308 26.5076C10.7152 27.1939 11.1321 27.8175 11.6576 28.3426C12.1828 28.8681 12.8064 29.285 13.4927 29.5694C14.179 29.8539 14.9147 30.0002 15.6576 30.0002C16.4006 30.0002 17.1362 29.8539 17.8226 29.5694C18.5089 29.285 19.1325 28.8681 19.6576 28.3426L36.3426 11.6576C36.8678 11.1321 37.4914 10.7152 38.1777 10.4308C38.864 10.1464 39.5997 10 40.3426 10C41.0856 10 41.8212 10.1464 42.5076 10.4308C43.1939 10.7152 43.8175 11.1321 44.3426 11.6576C44.8681 12.1828 45.285 12.8064 45.5694 13.4927C45.8538 14.179 46.0002 14.9147 46.0002 15.6576C46.0002 16.4006 45.8538 17.1362 45.5694 17.8226C45.285 18.5089 44.8681 19.1325 44.3426 19.6576L19.6576 44.3426C19.1321 44.8678 18.7152 45.4914 18.4308 46.1777C18.1464 46.864 18 47.5997 18 48.3426C18 49.0856 18.1464 49.8212 18.4308 50.5076C18.7152 51.1939 19.1321 51.8175 19.6576 52.3426C20.1828 52.8681 20.8064 53.285 21.4927 53.5694C22.179 53.8538 22.9147 54.0002 23.6576 54.0002C24.4006 54.0002 25.1362 53.8538 25.8226 53.5694C26.5089 53.285 27.1325 52.8681 27.6576 52.3426L44.3426 35.6576C44.8678 35.1321 45.4914 34.7152 46.1777 34.4308C46.864 34.1464 47.5997 34 48.3426 34C49.0856 34 49.8212 34.1464 50.5076 34.4308C51.1939 34.7152 51.8175 35.1321 52.3426 35.6576C52.8681 36.1828 53.285 36.8064 53.5694 37.4927C53.8538 38.179 54.0002 38.9147 54.0002 39.6576C54.0002 40.4006 53.8538 41.1362 53.5694 41.8226C53.285 42.5089 52.8681 43.1325 52.3426 43.6576L50.0001 46.0001C49.4746 46.5253 49.0577 47.1489 48.7733 47.8352C48.4889 48.5215 48.3425 49.2572 48.3425 50.0001C48.3425 50.7431 48.4889 51.4787 48.7733 52.1651C49.0577 52.8514 49.4746 53.475 50.0001 54.0001" stroke="#444CE7" stroke-width="2" stroke-linecap="round" stroke-linejoin="round"/>
<path d="M22.0001 10.0001L11.6576 20.3426C11.1321 20.8678 10.7152 21.4914 10.4308 22.1777C10.1464 22.864 10 23.5997 10 24.3426C10 25.0856 10.1464 25.8212 10.4308 26.5076C10.7152 27.1939 11.1321 27.8175 11.6576 28.3426C12.1828 28.8681 12.8064 29.285 13.4927 29.5694C14.179 29.8539 14.9147 30.0002 15.6576 30.0002C16.4006 30.0002 17.1362 29.8539 17.8226 29.5694C18.5089 29.285 19.1325 28.8681 19.6576 28.3426L36.3426 11.6576C36.8678 11.1321 37.4914 10.7152 38.1777 10.4308C38.864 10.1464 39.5997 10 40.3426 10C41.0856 10 41.8212 10.1464 42.5076 10.4308C43.1939 10.7152 43.8175 11.1321 44.3426 11.6576C44.8681 12.1828 45.285 12.8064 45.5694 13.4927C45.8538 14.179 46.0002 14.9147 46.0002 15.6576C46.0002 16.4006 45.8538 17.1362 45.5694 17.8226C45.285 18.5089 44.8681 19.1325 44.3426 19.6576" stroke="#222222" stroke-width="2" stroke-linecap="round" stroke-linejoin="round"/>
</g>
<defs>
<clipPath id="clip0_886_523">
<rect width="64" height="64" fill="white"/>
</clipPath>
</defs>
</svg>
