<svg width="64" height="64" viewBox="0 0 64 64" fill="none" xmlns="http://www.w3.org/2000/svg">
<g clip-path="url(#clip0_886_552)">
<path d="M24.6309 30.6299L33.3709 39.3699" stroke="#444CE7" stroke-width="2" stroke-linecap="round" stroke-linejoin="round"/>
<path d="M30.6309 24.6299L39.3709 33.3699" stroke="#444CE7" stroke-width="2" stroke-linecap="round" stroke-linejoin="round"/>
<path d="M24 42C33.9411 42 42 33.9411 42 24C42 14.0589 33.9411 6 24 6C14.0589 6 6 14.0589 6 24C6 33.9411 14.0589 42 24 42Z" stroke="black" stroke-width="2" stroke-linecap="round" stroke-linejoin="round"/>
<path d="M40 58C49.9411 58 58 49.9411 58 40C58 30.0589 49.9411 22 40 22C30.0589 22 22 30.0589 22 40C22 49.9411 30.0589 58 40 58Z" stroke="black" stroke-width="2" stroke-linecap="round" stroke-linejoin="round"/>
</g>
<defs>
<clipPath id="clip0_886_552">
<rect width="64" height="64" fill="white"/>
</clipPath>
</defs>
</svg>
