<svg width="47" height="47" viewBox="0 0 47 47" fill="none" xmlns="http://www.w3.org/2000/svg">
<mask id="path-1-outside-1_2008_861" maskUnits="userSpaceOnUse" x="2.41309" y="2.91504" width="43" height="43" fill="black">
<rect fill="white" x="2.41309" y="2.91504" width="43" height="43"/>
<path d="M43.1274 24.7722C43.1274 35.1867 34.6847 43.6293 24.2702 43.6293C13.8557 43.6293 5.41309 35.1867 5.41309 24.7722C5.41309 14.3577 13.8557 5.91504 24.2702 5.91504C34.6847 5.91504 43.1274 14.3577 43.1274 24.7722Z"/>
</mask>
<path d="M43.1274 24.7722C43.1274 35.1867 34.6847 43.6293 24.2702 43.6293C13.8557 43.6293 5.41309 35.1867 5.41309 24.7722C5.41309 14.3577 13.8557 5.91504 24.2702 5.91504C34.6847 5.91504 43.1274 14.3577 43.1274 24.7722Z" fill="black"/>
<g clip-path="url(#paint0_angular_2008_861_clip_path)" data-figma-skip-parse="true" mask="url(#path-1-outside-1_2008_861)"><g transform="matrix(0 0.0188571 -0.0188571 0 24.2702 24.7722)"><foreignObject x="-1111.11" y="-1111.11" width="2222.22" height="2222.22"><div xmlns="http://www.w3.org/1999/xhtml" style="background:conic-gradient(from 90deg,rgba(231, 179, 28, 1) 0deg,rgba(232, 129, 34, 1) 35.2334deg,rgba(230, 27, 13, 1) 89.4508deg,rgba(237, 62, 241, 1) 140.841deg,rgba(40, 60, 233, 1) 215.328deg,rgba(32, 240, 115, 1) 268.856deg,rgba(230, 234, 22, 1) 321.695deg,rgba(231, 179, 28, 1) 360deg);height:100%;width:100%;opacity:1"></div></foreignObject></g></g><path d="M43.1274 24.7722H41.0321C41.0321 34.0295 33.5276 41.5341 24.2702 41.5341V43.6293V45.7246C35.8419 45.7246 45.2226 36.3439 45.2226 24.7722H43.1274ZM24.2702 43.6293V41.5341C15.0129 41.5341 7.50832 34.0295 7.50832 24.7722H5.41309H3.31785C3.31785 36.3439 12.6985 45.7246 24.2702 45.7246V43.6293ZM5.41309 24.7722H7.50832C7.50832 15.5148 15.0129 8.01028 24.2702 8.01028V5.91504V3.8198C12.6985 3.8198 3.31785 13.2005 3.31785 24.7722H5.41309ZM24.2702 5.91504V8.01028C33.5276 8.01028 41.0321 15.5148 41.0321 24.7722H43.1274H45.2226C45.2226 13.2005 35.8419 3.8198 24.2702 3.8198V5.91504Z" data-figma-gradient-fill="{&#34;type&#34;:&#34;GRADIENT_ANGULAR&#34;,&#34;stops&#34;:[{&#34;color&#34;:{&#34;r&#34;:0.91156464815139771,&#34;g&#34;:0.50716692209243774,&#34;b&#34;:0.13387678563594818,&#34;a&#34;:1.0},&#34;position&#34;:0.097870692610740662},{&#34;color&#34;:{&#34;r&#34;:0.90364927053451538,&#34;g&#34;:0.10790815949440002,&#34;b&#34;:0.051069501787424088,&#34;a&#34;:1.0},&#34;position&#34;:0.24847434461116791},{&#34;color&#34;:{&#34;r&#34;:0.93316000699996948,&#34;g&#34;:0.24699866771697998,&#34;b&#34;:0.94716328382492065,&#34;a&#34;:1.0},&#34;position&#34;:0.39122369885444641},{&#34;color&#34;:{&#34;r&#34;:0.15958988666534424,&#34;g&#34;:0.23537118732929230,&#34;b&#34;:0.91740292310714722,&#34;a&#34;:1.0},&#34;position&#34;:0.59813207387924194},{&#34;color&#34;:{&#34;r&#34;:0.12639550864696503,&#34;g&#34;:0.94417726993560791,&#34;b&#34;:0.45350825786590576,&#34;a&#34;:1.0},&#34;position&#34;:0.74682313203811646},{&#34;color&#34;:{&#34;r&#34;:0.90427178144454956,&#34;g&#34;:0.92094409465789795,&#34;b&#34;:0.087327800691127777,&#34;a&#34;:1.0},&#34;position&#34;:0.89359730482101440}],&#34;stopsVar&#34;:[{&#34;color&#34;:{&#34;r&#34;:0.91156464815139771,&#34;g&#34;:0.50716692209243774,&#34;b&#34;:0.13387678563594818,&#34;a&#34;:1.0},&#34;position&#34;:0.097870692610740662},{&#34;color&#34;:{&#34;r&#34;:0.90364927053451538,&#34;g&#34;:0.10790815949440002,&#34;b&#34;:0.051069501787424088,&#34;a&#34;:1.0},&#34;position&#34;:0.24847434461116791},{&#34;color&#34;:{&#34;r&#34;:0.93316000699996948,&#34;g&#34;:0.24699866771697998,&#34;b&#34;:0.94716328382492065,&#34;a&#34;:1.0},&#34;position&#34;:0.39122369885444641},{&#34;color&#34;:{&#34;r&#34;:0.15958988666534424,&#34;g&#34;:0.23537118732929230,&#34;b&#34;:0.91740292310714722,&#34;a&#34;:1.0},&#34;position&#34;:0.59813207387924194},{&#34;color&#34;:{&#34;r&#34;:0.12639550864696503,&#34;g&#34;:0.94417726993560791,&#34;b&#34;:0.45350825786590576,&#34;a&#34;:1.0},&#34;position&#34;:0.74682313203811646},{&#34;color&#34;:{&#34;r&#34;:0.90427178144454956,&#34;g&#34;:0.92094409465789795,&#34;b&#34;:0.087327800691127777,&#34;a&#34;:1.0},&#34;position&#34;:0.89359730482101440}],&#34;transform&#34;:{&#34;m00&#34;:2.3093341102516530e-15,&#34;m01&#34;:-37.714286804199219,&#34;m02&#34;:43.127372741699219,&#34;m10&#34;:37.714286804199219,&#34;m11&#34;:2.3093341102516530e-15,&#34;m12&#34;:5.91503906250},&#34;opacity&#34;:1.0,&#34;blendMode&#34;:&#34;NORMAL&#34;,&#34;visible&#34;:true}" mask="url(#path-1-outside-1_2008_861)"/>
<g filter="url(#filter0_f_2008_861)">
<g clip-path="url(#paint1_diamond_2008_861_clip_path)" data-figma-skip-parse="true"><g transform="matrix(-0.00931794 -0.0130663 0.0130663 -0.00931794 23.516 24.7731)"><rect x="0" y="0" width="1231.85" height="840.165" fill="url(#paint1_diamond_2008_861)" opacity="1" shape-rendering="crispEdges"/><rect x="0" y="0" width="1231.85" height="840.165" transform="scale(1 -1)" fill="url(#paint1_diamond_2008_861)" opacity="1" shape-rendering="crispEdges"/><rect x="0" y="0" width="1231.85" height="840.165" transform="scale(-1 1)" fill="url(#paint1_diamond_2008_861)" opacity="1" shape-rendering="crispEdges"/><rect x="0" y="0" width="1231.85" height="840.165" transform="scale(-1)" fill="url(#paint1_diamond_2008_861)" opacity="1" shape-rendering="crispEdges"/></g></g><ellipse cx="19.6129" cy="19.6128" rx="8.92523" ry="8.92523" transform="rotate(15 19.6129 19.6128)" data-figma-gradient-fill="{&#34;type&#34;:&#34;GRADIENT_DIAMOND&#34;,&#34;stops&#34;:[{&#34;color&#34;:{&#34;r&#34;:0.49640899896621704,&#34;g&#34;:0.33841174840927124,&#34;b&#34;:0.84982353448867798,&#34;a&#34;:1.0},&#34;position&#34;:0.0},{&#34;color&#34;:{&#34;r&#34;:0.0,&#34;g&#34;:0.0,&#34;b&#34;:0.0,&#34;a&#34;:1.0},&#34;position&#34;:1.0}],&#34;stopsVar&#34;:[{&#34;color&#34;:{&#34;r&#34;:0.49640899896621704,&#34;g&#34;:0.33841174840927124,&#34;b&#34;:0.84982353448867798,&#34;a&#34;:1.0},&#34;position&#34;:0.0},{&#34;color&#34;:{&#34;r&#34;:0.0,&#34;g&#34;:0.0,&#34;b&#34;:0.0,&#34;a&#34;:1.0},&#34;position&#34;:1.0}],&#34;transform&#34;:{&#34;m00&#34;:-18.635885238647461,&#34;m01&#34;:26.132631301879883,&#34;m02&#34;:19.767671585083008,&#34;m10&#34;:-26.132631301879883,&#34;m11&#34;:-18.635883331298828,&#34;m12&#34;:47.157325744628906},&#34;opacity&#34;:1.0,&#34;blendMode&#34;:&#34;NORMAL&#34;,&#34;visible&#34;:true}"/>
</g>
<path d="M24.3965 12.4521L24.7057 14.284C25.5964 19.5621 29.7316 23.6973 35.0097 24.5881L36.8416 24.8972L35.0097 25.2064C29.7316 26.0972 25.5964 30.2324 24.7057 35.5104L24.3965 37.3423L24.0873 35.5104C23.1965 30.2324 19.0614 26.0972 13.7833 25.2064L11.9514 24.8972L13.7833 24.5881C19.0614 23.6973 23.1965 19.5621 24.0873 14.284L24.3965 12.4521Z" fill="white"/>
<defs>
<clipPath id="paint0_angular_2008_861_clip_path"><path d="M43.1274 24.7722H41.0321C41.0321 34.0295 33.5276 41.5341 24.2702 41.5341V43.6293V45.7246C35.8419 45.7246 45.2226 36.3439 45.2226 24.7722H43.1274ZM24.2702 43.6293V41.5341C15.0129 41.5341 7.50832 34.0295 7.50832 24.7722H5.41309H3.31785C3.31785 36.3439 12.6985 45.7246 24.2702 45.7246V43.6293ZM5.41309 24.7722H7.50832C7.50832 15.5148 15.0129 8.01028 24.2702 8.01028V5.91504V3.8198C12.6985 3.8198 3.31785 13.2005 3.31785 24.7722H5.41309ZM24.2702 5.91504V8.01028C33.5276 8.01028 41.0321 15.5148 41.0321 24.7722H43.1274H45.2226C45.2226 13.2005 35.8419 3.8198 24.2702 3.8198V5.91504Z"/></clipPath><filter id="filter0_f_2008_861" x="-0.000166893" y="-0.000166893" width="39.2259" height="39.2259" filterUnits="userSpaceOnUse" color-interpolation-filters="sRGB">
<feFlood flood-opacity="0" result="BackgroundImageFix"/>
<feBlend mode="normal" in="SourceGraphic" in2="BackgroundImageFix" result="shape"/>
<feGaussianBlur stdDeviation="5.34286" result="effect1_foregroundBlur_2008_861"/>
</filter>
<clipPath id="paint1_diamond_2008_861_clip_path"><ellipse cx="19.6129" cy="19.6128" rx="8.92523" ry="8.92523" transform="rotate(15 19.6129 19.6128)"/></clipPath><linearGradient id="paint1_diamond_2008_861" x1="0" y1="0" x2="500" y2="500" gradientUnits="userSpaceOnUse">
<stop stop-color="#7F56D9"/>
<stop offset="1"/>
</linearGradient>
</defs>
</svg>
