<svg width="22" height="22" viewBox="0 0 22 22" fill="none" xmlns="http://www.w3.org/2000/svg">
<mask id="path-1-outside-1_2025_1278" maskUnits="userSpaceOnUse" x="1.46094" y="1.68945" width="20" height="20" fill="black">
<rect fill="white" x="1.46094" y="1.68945" width="20" height="20"/>
<path d="M19.6038 11.2609C19.6038 15.9948 15.7662 19.8323 11.0324 19.8323C6.2985 19.8323 2.46094 15.9948 2.46094 11.2609C2.46094 6.52701 6.2985 2.68945 11.0324 2.68945C15.7662 2.68945 19.6038 6.52701 19.6038 11.2609Z"/>
</mask>
<path d="M19.6038 11.2609C19.6038 15.9948 15.7662 19.8323 11.0324 19.8323C6.2985 19.8323 2.46094 15.9948 2.46094 11.2609C2.46094 6.52701 6.2985 2.68945 11.0324 2.68945C15.7662 2.68945 19.6038 6.52701 19.6038 11.2609Z" fill="black"/>
<g clip-path="url(#paint0_angular_2025_1278_clip_path)" data-figma-skip-parse="true" mask="url(#path-1-outside-1_2025_1278)"><g transform="matrix(0 0.00857143 -0.00857143 0 11.0324 11.2609)"><foreignObject x="-1111.11" y="-1111.11" width="2222.22" height="2222.22"><div xmlns="http://www.w3.org/1999/xhtml" style="background:conic-gradient(from 90deg,rgba(231, 179, 28, 1) 0deg,rgba(232, 129, 34, 1) 35.2334deg,rgba(230, 27, 13, 1) 89.4508deg,rgba(237, 62, 241, 1) 140.841deg,rgba(40, 60, 233, 1) 215.328deg,rgba(32, 240, 115, 1) 268.856deg,rgba(230, 234, 22, 1) 321.695deg,rgba(231, 179, 28, 1) 360deg);height:100%;width:100%;opacity:1"></div></foreignObject></g></g><path d="M19.6038 11.2609H18.6514C18.6514 15.4688 15.2403 18.8799 11.0324 18.8799V19.8323V20.7847C16.2922 20.7847 20.5562 16.5207 20.5562 11.2609H19.6038ZM11.0324 19.8323V18.8799C6.82448 18.8799 3.41332 15.4688 3.41332 11.2609H2.46094H1.50856C1.50856 16.5207 5.77251 20.7847 11.0324 20.7847V19.8323ZM2.46094 11.2609H3.41332C3.41332 7.053 6.82448 3.64183 11.0324 3.64183V2.68945V1.73707C5.77251 1.73707 1.50856 6.00103 1.50856 11.2609H2.46094ZM11.0324 2.68945V3.64183C15.2403 3.64183 18.6514 7.053 18.6514 11.2609H19.6038H20.5562C20.5562 6.00103 16.2922 1.73707 11.0324 1.73707V2.68945Z" data-figma-gradient-fill="{&#34;type&#34;:&#34;GRADIENT_ANGULAR&#34;,&#34;stops&#34;:[{&#34;color&#34;:{&#34;r&#34;:0.91156464815139771,&#34;g&#34;:0.50716692209243774,&#34;b&#34;:0.13387678563594818,&#34;a&#34;:1.0},&#34;position&#34;:0.097870692610740662},{&#34;color&#34;:{&#34;r&#34;:0.90364927053451538,&#34;g&#34;:0.10790815949440002,&#34;b&#34;:0.051069501787424088,&#34;a&#34;:1.0},&#34;position&#34;:0.24847434461116791},{&#34;color&#34;:{&#34;r&#34;:0.93316000699996948,&#34;g&#34;:0.24699866771697998,&#34;b&#34;:0.94716328382492065,&#34;a&#34;:1.0},&#34;position&#34;:0.39122369885444641},{&#34;color&#34;:{&#34;r&#34;:0.15958988666534424,&#34;g&#34;:0.23537118732929230,&#34;b&#34;:0.91740292310714722,&#34;a&#34;:1.0},&#34;position&#34;:0.59813207387924194},{&#34;color&#34;:{&#34;r&#34;:0.12639550864696503,&#34;g&#34;:0.94417726993560791,&#34;b&#34;:0.45350825786590576,&#34;a&#34;:1.0},&#34;position&#34;:0.74682313203811646},{&#34;color&#34;:{&#34;r&#34;:0.90427178144454956,&#34;g&#34;:0.92094409465789795,&#34;b&#34;:0.087327800691127777,&#34;a&#34;:1.0},&#34;position&#34;:0.89359730482101440}],&#34;stopsVar&#34;:[{&#34;color&#34;:{&#34;r&#34;:0.91156464815139771,&#34;g&#34;:0.50716692209243774,&#34;b&#34;:0.13387678563594818,&#34;a&#34;:1.0},&#34;position&#34;:0.097870692610740662},{&#34;color&#34;:{&#34;r&#34;:0.90364927053451538,&#34;g&#34;:0.10790815949440002,&#34;b&#34;:0.051069501787424088,&#34;a&#34;:1.0},&#34;position&#34;:0.24847434461116791},{&#34;color&#34;:{&#34;r&#34;:0.93316000699996948,&#34;g&#34;:0.24699866771697998,&#34;b&#34;:0.94716328382492065,&#34;a&#34;:1.0},&#34;position&#34;:0.39122369885444641},{&#34;color&#34;:{&#34;r&#34;:0.15958988666534424,&#34;g&#34;:0.23537118732929230,&#34;b&#34;:0.91740292310714722,&#34;a&#34;:1.0},&#34;position&#34;:0.59813207387924194},{&#34;color&#34;:{&#34;r&#34;:0.12639550864696503,&#34;g&#34;:0.94417726993560791,&#34;b&#34;:0.45350825786590576,&#34;a&#34;:1.0},&#34;position&#34;:0.74682313203811646},{&#34;color&#34;:{&#34;r&#34;:0.90427178144454956,&#34;g&#34;:0.92094409465789795,&#34;b&#34;:0.087327800691127777,&#34;a&#34;:1.0},&#34;position&#34;:0.89359730482101440}],&#34;transform&#34;:{&#34;m00&#34;:1.0496974383461533e-15,&#34;m01&#34;:-17.142858505249023,&#34;m02&#34;:19.603796005249023,&#34;m10&#34;:17.142858505249023,&#34;m11&#34;:1.0496974383461533e-15,&#34;m12&#34;:2.6894531250},&#34;opacity&#34;:1.0,&#34;blendMode&#34;:&#34;NORMAL&#34;,&#34;visible&#34;:true}" mask="url(#path-1-outside-1_2025_1278)"/>
<g filter="url(#filter0_f_2025_1278)">
<g clip-path="url(#paint1_diamond_2025_1278_clip_path)" data-figma-skip-parse="true"><g transform="matrix(-0.00423543 -0.00593923 0.00593923 -0.00423543 10.6897 11.2606)"><rect x="0" y="0" width="1231.85" height="840.165" fill="url(#paint1_diamond_2025_1278)" opacity="1" shape-rendering="crispEdges"/><rect x="0" y="0" width="1231.85" height="840.165" transform="scale(1 -1)" fill="url(#paint1_diamond_2025_1278)" opacity="1" shape-rendering="crispEdges"/><rect x="0" y="0" width="1231.85" height="840.165" transform="scale(-1 1)" fill="url(#paint1_diamond_2025_1278)" opacity="1" shape-rendering="crispEdges"/><rect x="0" y="0" width="1231.85" height="840.165" transform="scale(-1)" fill="url(#paint1_diamond_2025_1278)" opacity="1" shape-rendering="crispEdges"/></g></g><ellipse cx="8.91555" cy="8.91498" rx="4.05692" ry="4.05692" transform="rotate(15 8.91555 8.91498)" data-figma-gradient-fill="{&#34;type&#34;:&#34;GRADIENT_DIAMOND&#34;,&#34;stops&#34;:[{&#34;color&#34;:{&#34;r&#34;:0.49640899896621704,&#34;g&#34;:0.33841174840927124,&#34;b&#34;:0.84982353448867798,&#34;a&#34;:1.0},&#34;position&#34;:0.0},{&#34;color&#34;:{&#34;r&#34;:0.0,&#34;g&#34;:0.0,&#34;b&#34;:0.0,&#34;a&#34;:1.0},&#34;position&#34;:1.0}],&#34;stopsVar&#34;:[{&#34;color&#34;:{&#34;r&#34;:0.49640899896621704,&#34;g&#34;:0.33841174840927124,&#34;b&#34;:0.84982353448867798,&#34;a&#34;:1.0},&#34;position&#34;:0.0},{&#34;color&#34;:{&#34;r&#34;:0.0,&#34;g&#34;:0.0,&#34;b&#34;:0.0,&#34;a&#34;:1.0},&#34;position&#34;:1.0}],&#34;transform&#34;:{&#34;m00&#34;:-8.4708576202392578,&#34;m01&#34;:11.878469467163086,&#34;m02&#34;:8.9859266281127930,&#34;m10&#34;:-11.878468513488770,&#34;m11&#34;:-8.4708566665649414,&#34;m12&#34;:21.435237884521484},&#34;opacity&#34;:1.0,&#34;blendMode&#34;:&#34;NORMAL&#34;,&#34;visible&#34;:true}"/>
</g>
<path d="M11.0898 5.66016L11.2304 6.49284C11.6353 8.89195 13.5149 10.7716 15.914 11.1765L16.7467 11.317L15.914 11.4575C13.5149 11.8624 11.6353 13.7421 11.2304 16.1412L11.0898 16.9739L10.9493 16.1412C10.5444 13.7421 8.66478 11.8624 6.26567 11.4575L5.43299 11.317L6.26567 11.1765C8.66478 10.7716 10.5444 8.89195 10.9493 6.49284L11.0898 5.66016Z" fill="white"/>
<defs>
<clipPath id="paint0_angular_2025_1278_clip_path"><path d="M19.6038 11.2609H18.6514C18.6514 15.4688 15.2403 18.8799 11.0324 18.8799V19.8323V20.7847C16.2922 20.7847 20.5562 16.5207 20.5562 11.2609H19.6038ZM11.0324 19.8323V18.8799C6.82448 18.8799 3.41332 15.4688 3.41332 11.2609H2.46094H1.50856C1.50856 16.5207 5.77251 20.7847 11.0324 20.7847V19.8323ZM2.46094 11.2609H3.41332C3.41332 7.053 6.82448 3.64183 11.0324 3.64183V2.68945V1.73707C5.77251 1.73707 1.50856 6.00103 1.50856 11.2609H2.46094ZM11.0324 2.68945V3.64183C15.2403 3.64183 18.6514 7.053 18.6514 11.2609H19.6038H20.5562C20.5562 6.00103 16.2922 1.73707 11.0324 1.73707V2.68945Z"/></clipPath><filter id="filter0_f_2025_1278" x="0.00027895" y="0.00027895" width="17.8305" height="17.8295" filterUnits="userSpaceOnUse" color-interpolation-filters="sRGB">
<feFlood flood-opacity="0" result="BackgroundImageFix"/>
<feBlend mode="normal" in="SourceGraphic" in2="BackgroundImageFix" result="shape"/>
<feGaussianBlur stdDeviation="2.42857" result="effect1_foregroundBlur_2025_1278"/>
</filter>
<clipPath id="paint1_diamond_2025_1278_clip_path"><ellipse cx="8.91555" cy="8.91498" rx="4.05692" ry="4.05692" transform="rotate(15 8.91555 8.91498)"/></clipPath><linearGradient id="paint1_diamond_2025_1278" x1="0" y1="0" x2="500" y2="500" gradientUnits="userSpaceOnUse">
<stop stop-color="#7F56D9"/>
<stop offset="1"/>
</linearGradient>
</defs>
</svg>
