<svg width="64" height="64" viewBox="0 0 64 64" fill="none" xmlns="http://www.w3.org/2000/svg">
<g clip-path="url(#clip0_886_545)">
<path d="M20 28C24.4183 28 28 24.4183 28 20C28 15.5817 24.4183 12 20 12C15.5817 12 12 15.5817 12 20C12 24.4183 15.5817 28 20 28Z" stroke="black" stroke-width="2" stroke-linecap="round" stroke-linejoin="round"/>
<path d="M44 28C48.4183 28 52 24.4183 52 20C52 15.5817 48.4183 12 44 12C39.5817 12 36 15.5817 36 20C36 24.4183 39.5817 28 44 28Z" stroke="black" stroke-width="2" stroke-linecap="round" stroke-linejoin="round"/>
<path d="M20 52C24.4183 52 28 48.4183 28 44C28 39.5817 24.4183 36 20 36C15.5817 36 12 39.5817 12 44C12 48.4183 15.5817 52 20 52Z" stroke="black" stroke-width="2" stroke-linecap="round" stroke-linejoin="round"/>
<path d="M44 36V52" stroke="#444CE7" stroke-width="2" stroke-linecap="round" stroke-linejoin="round"/>
<path d="M52 44H36" stroke="#444CE7" stroke-width="2" stroke-linecap="round" stroke-linejoin="round"/>
</g>
<defs>
<clipPath id="clip0_886_545">
<rect width="64" height="64" fill="white"/>
</clipPath>
</defs>
</svg>
