<svg width="64" height="64" viewBox="0 0 64 64" fill="none" xmlns="http://www.w3.org/2000/svg">
<g clip-path="url(#clip0_886_558)">
<path d="M26 40H38" stroke="#444CE7" stroke-width="2" stroke-linecap="round" stroke-linejoin="round"/>
<path d="M17 50C21.9706 50 26 45.9706 26 41C26 36.0294 21.9706 32 17 32C12.0294 32 8 36.0294 8 41C8 45.9706 12.0294 50 17 50Z" stroke="black" stroke-width="2" stroke-linecap="round" stroke-linejoin="round"/>
<path d="M47 50C51.9706 50 56 45.9706 56 41C56 36.0294 51.9706 32 47 32C42.0294 32 38 36.0294 38 41C38 45.9706 42.0294 50 47 50Z" stroke="black" stroke-width="2" stroke-linecap="round" stroke-linejoin="round"/>
<path d="M8 41V18C8 16.4087 8.63214 14.8826 9.75736 13.7574C10.8826 12.6321 12.4087 12 14 12" stroke="black" stroke-width="2" stroke-linecap="round" stroke-linejoin="round"/>
<path d="M50 12C51.5913 12 53.1174 12.6321 54.2426 13.7574C55.3679 14.8826 56 16.4087 56 18V41" stroke="black" stroke-width="2" stroke-linecap="round" stroke-linejoin="round"/>
</g>
<defs>
<clipPath id="clip0_886_558">
<rect width="64" height="64" fill="white"/>
</clipPath>
</defs>
</svg>
